<?xml version="1.0" encoding="utf-8"?>
<!-- Generator: Adobe Illustrator 23.0.1, SVG Export Plug-In . SVG Version: 6.00 Build 0)  -->
<svg version="1.1" id="Layer_1" xmlns="http://www.w3.org/2000/svg" xmlns:xlink="http://www.w3.org/1999/xlink" x="0px" y="0px"
	 viewBox="0 0 28.9 28.9" style="enable-background:new 0 0 28.9 28.9;" xml:space="preserve">
<style type="text/css">
	.st0{fill:#62CBC9;}
	.st1{fill:#F0574A;}
</style>
<g>
	<path class="st0" d="M7,23.9C7,23.9,7,23.9,7,23.9C7,23.9,7,23.9,7,23.9c0.6,0.2,1,0.3,1.6,0.4c1.9,0.3,1.3,2.1-0.2,3.4
		c-0.3,0.3,0,0.8,0.4,0.7c2.4-0.8,6.5-3.9,8.4-9c0.2-0.4,0.3-0.7,0.4-1.1c0-0.1,0.1-0.1,0.1-0.2c0,0,0,0,0,0
		c0.2-0.6,0.2-1.3,0.2-1.9c0-4.6-3.7-8.2-8.2-8.2s-8.2,3.7-8.2,8.2C1.4,19.7,3.7,22.8,7,23.9"/>
	<path class="st1" d="M24,10.6L24,10.6C24,10.6,24,10.7,24,10.6c-0.3,0.1-0.7,0.2-1,0.2c-1.2,0.2-0.8,1.3,0.2,2.2
		c0.2,0.2,0,0.5-0.2,0.4c-1.5-0.5-4.1-2.4-5.3-5.6c-0.1-0.2-0.2-0.5-0.2-0.7c0-0.1,0-0.1-0.1-0.1c0,0,0,0,0,0
		c-0.1-0.4-0.2-0.8-0.2-1.2c0-2.9,2.3-5.2,5.2-5.2c2.9,0,5.2,2.3,5.2,5.2C27.6,8,26.1,10,24,10.6"/>
</g>
</svg>
