<?xml version="1.0" encoding="utf-8"?>
<!-- Generator: Adobe Illustrator 23.0.1, SVG Export Plug-In . SVG Version: 6.00 Build 0)  -->
<svg version="1.1" id="Layer_1" xmlns="http://www.w3.org/2000/svg" xmlns:xlink="http://www.w3.org/1999/xlink" x="0px" y="0px"
	 viewBox="0 0 27 27" style="enable-background:new 0 0 27 27;" xml:space="preserve">
<style type="text/css">
	.st0{fill:none;stroke:#FFFFFF;stroke-width:2;stroke-miterlimit:10;}
	.st1{fill:#FFFFFF;}
</style>
<path class="st0" d="M18.1,1H8.9C4.5,1,1,4.5,1,8.9v9.3C1,22.5,4.5,26,8.9,26h9.3c4.3,0,7.9-3.5,7.9-7.9V8.9C26,4.5,22.5,1,18.1,1z"
	/>
<path class="st1" d="M18.1,1H8.9C4.5,1,1,4.5,1,8.9h25C26,4.5,22.5,1,18.1,1z"/>
<g>
	<path class="st1" d="M8.5,16.5c0,0.6-0.5,1.1-1.1,1.1c-0.6,0-1.1-0.5-1.1-1.1c0-0.6,0.5-1.1,1.1-1.1C8,15.4,8.5,15.9,8.5,16.5"/>
	<path class="st1" d="M14.6,16.5c0,0.6-0.5,1.1-1.1,1.1c-0.6,0-1.1-0.5-1.1-1.1c0-0.6,0.5-1.1,1.1-1.1
		C14.1,15.4,14.6,15.9,14.6,16.5"/>
	<path class="st1" d="M20.7,16.5c0,0.6-0.5,1.1-1.1,1.1c-0.6,0-1.1-0.5-1.1-1.1c0-0.6,0.5-1.1,1.1-1.1
		C20.2,15.4,20.7,15.9,20.7,16.5"/>
</g>
</svg>
