<?xml version="1.0" encoding="utf-8"?>
<!-- Generator: Adobe Illustrator 23.0.1, SVG Export Plug-In . SVG Version: 6.00 Build 0)  -->
<svg version="1.1" id="Layer_1" xmlns="http://www.w3.org/2000/svg" xmlns:xlink="http://www.w3.org/1999/xlink" x="0px" y="0px"
	 viewBox="0 0 91.7 43" style="enable-background:new 0 0 91.7 43;" xml:space="preserve">
<style type="text/css">
	.st0{fill:#FFF;}
	.st1{fill:#FFF;}
</style>
<g>
	<path class="st0" d="M9.8,22.7H14v2.1c1-1.2,2.2-2.4,4.4-2.4c3.2,0,5,2.1,5,5.5v9.6h-4.2v-8.3c0-2-0.9-3-2.6-3c-1.6,0-2.6,1-2.6,3
		v8.3H9.8V22.7z"/>
	<path class="st0" d="M26,35.4l1.7-2.7c1.6,1.1,3.2,1.7,4.5,1.7c1.2,0,1.7-0.4,1.7-1.1v-0.1c0-0.9-1.4-1.2-3-1.7
		c-2-0.6-4.3-1.5-4.3-4.3v-0.1c0-2.9,2.4-4.6,5.3-4.6c1.8,0,3.8,0.6,5.4,1.7l-1.6,2.8c-1.4-0.8-2.8-1.3-3.9-1.3c-1,0-1.5,0.4-1.5,1
		v0.1c0,0.8,1.4,1.2,2.9,1.7c2,0.7,4.4,1.6,4.4,4.3v0.1c0,3.2-2.4,4.6-5.5,4.6C30.2,37.6,27.9,36.9,26,35.4"/>
	<path class="st0" d="M40.2,22.8h4.1v2.1c1-1.3,2.4-2.3,4.5-2.3c3.4,0,6.6,2.6,6.6,7.5V30c0,4.8-3.1,7.5-6.6,7.5
		c-2.2,0-3.5-1-4.5-2.2v6.2h-4.1V22.8z M51.3,30L51.3,30c0-2.4-1.6-4-3.5-4c-1.9,0-3.5,1.6-3.5,4V30c0,2.4,1.6,4,3.5,4
		C49.7,34,51.3,32.4,51.3,30"/>
	<path class="st0" d="M65.7,22.7h4.2v3c0.9-2,2.2-3.4,4.7-3.3v4.4h-0.2c-2.8,0-4.5,1.7-4.5,5.2v5.5h-4.2V22.7z"/>
	<path class="st0" d="M76.4,30.2L76.4,30.2c0-4.1,3-7.5,7.2-7.5c4.9,0,7.1,3.7,7.1,7.7c0,0.3,0,0.7-0.1,1.1H80.5
		c0.4,1.8,1.7,2.8,3.5,2.8c1.4,0,2.4-0.4,3.5-1.5l2.4,2c-1.4,1.6-3.3,2.7-5.9,2.7C79.7,37.5,76.4,34.5,76.4,30.2 M86.7,29
		c-0.2-1.8-1.3-3-3.1-3c-1.7,0-2.8,1.2-3.1,3H86.7z"/>
	<polygon class="st0" points="62.1,37.1 62.1,22.7 56.9,22.7 56.9,23.2 57.9,23.2 57.9,37.1 56.9,37.1 56.9,37.6 63.2,37.6 
		63.2,37.1 	"/>
	<polygon class="st0" points="6.3,37.1 6.3,22.7 1,22.7 1,23.2 2.1,23.2 2.1,37.1 1,37.1 1,37.6 7.3,37.6 7.3,37.1 	"/>
	<path class="st1" d="M58,16C58,16,57.9,16,58,16C58,16,58,16,58,16c0.5,0.2,0.9,0.3,1.4,0.3c1.7,0.3,1.2,1.9-0.2,3.1
		c-0.3,0.3,0,0.7,0.3,0.6c2.1-0.7,5.9-3.5,7.6-8.1c0.1-0.3,0.3-0.6,0.3-1c0-0.1,0.1-0.1,0.1-0.2c0,0,0,0,0,0
		c0.1-0.6,0.2-1.1,0.2-1.7c0-4.1-3.3-7.4-7.4-7.4c-4.1,0-7.4,3.3-7.4,7.4C52.9,12.2,55,15,58,16"/>
	<path class="st0" d="M8.4,11.8H10c1.3,0,2,0.5,2,1.8c0,0.5-0.2,1-0.6,1.3c0.8,0.1,1.2,1,1.2,1.7c0,1.3-0.9,1.9-2.2,1.9H8.4V11.8z
		 M9.7,14.6h0.2c0.6,0,1-0.2,1-0.9c0-0.7-0.4-0.9-1-0.9H9.7V14.6z M9.7,17.5H10c0.7,0,1.3-0.1,1.3-1c0-0.9-0.7-0.9-1.4-0.9H9.7V17.5
		z"/>
	<polygon class="st0" points="15.6,18.5 14.2,18.5 14.2,12.9 12.9,12.9 12.9,11.8 16.9,11.8 16.9,12.9 15.6,12.9 	"/>
	<path class="st0" d="M23.4,14.9v0.2c0,1.9-1,3.6-3.1,3.6c-2,0-3.2-1.7-3.2-3.5c0-1.9,1.3-3.6,3.3-3.6c1.2,0,2.2,0.6,2.7,1.6
		l-1.2,0.6c-0.3-0.6-0.8-1.1-1.5-1.1c-1.3,0-1.9,1.3-1.9,2.4s0.6,2.4,1.9,2.4c0.8,0,1.5-0.7,1.5-1.5h-1.4v-1.1H23.4z"/>
	<path class="st0" d="M1.1,11.4h2.4l-0.1,3.1h0.1c0.1-0.3,0.2-0.6,0.3-0.8L5,11.4h2.7l-2.1,3.5l2.3,3.7H5.1l-1.2-2.2
		c-0.1-0.3-0.4-0.5-0.4-0.8H3.4l0.1,3H1.1V11.4z"/>
</g>
</svg>
