<?xml version="1.0" encoding="utf-8"?>
<!-- Generator: Adobe Illustrator 23.0.1, SVG Export Plug-In . SVG Version: 6.00 Build 0)  -->
<svg version="1.1" id="Layer_1" xmlns="http://www.w3.org/2000/svg" xmlns:xlink="http://www.w3.org/1999/xlink" x="0px" y="0px"
	 viewBox="0 0 34.5 34.5" style="enable-background:new 0 0 34.5 34.5;" xml:space="preserve">
<style type="text/css">
	.st0{fill:none;stroke:#FFFFFF;stroke-width:0.933;stroke-miterlimit:10;}
	.st1{fill:#E6E7E8;}
	.st2{fill:#BBBDBF;}
	.st3{fill:#FFFFFF;}
</style>
<path class="st0" d="M34,17.3C34,26.5,26.5,34,17.3,34C8,34,0.5,26.5,0.5,17.3C0.5,8,8,0.5,17.3,0.5C26.5,0.5,34,8,34,17.3z"/>
<polygon class="st1" points="12,18 13.9,23.2 22.5,11.3 "/>
<polygon class="st2" points="15.2,15.2 15,19.3 19.5,15.5 "/>
<path class="st3" d="M25.5,9.9L8.6,16.3c-0.5,0.2-0.5,0.9,0,1l4.4,1.5l9.9-6.4l-7.9,7.3l6.1,4.6c0.6,0.5,1.6,0.2,1.8-0.6l3.3-13.2
	C26.3,10.1,25.9,9.8,25.5,9.9"/>
</svg>
