<?xml version="1.0" encoding="utf-8"?>
<!-- Generator: Adobe Illustrator 23.0.1, SVG Export Plug-In . SVG Version: 6.00 Build 0)  -->
<svg version="1.1" id="Layer_1" xmlns="http://www.w3.org/2000/svg" xmlns:xlink="http://www.w3.org/1999/xlink" x="0px" y="0px"
	 viewBox="0 0 34.5 34.5" style="enable-background:new 0 0 34.5 34.5;" xml:space="preserve">
<style type="text/css">
	.st0{fill:#F0574A;}
	.st1{fill:none;stroke:#F0574A;stroke-width:0.933;stroke-miterlimit:10;}
</style>
<g>
	<path class="st0" d="M9.6,9.2L9.6,9.2v16.1c-1,0-1.8-0.8-1.8-1.8V11C7.9,10,8.7,9.2,9.6,9.2"/>
	<path class="st0" d="M7.9,23.5L7.9,23.5h6v1.8H9.6C8.7,25.3,7.9,24.5,7.9,23.5"/>
	<path class="st0" d="M7.9,11L7.9,11c0-1,0.8-1.8,1.8-1.8h4.2V11H7.9z"/>
	<rect x="15.5" y="15.2" transform="matrix(0.7071 -0.7071 0.7071 0.7071 -9.3363 17.4122)" class="st0" width="1.8" height="9.5"/>
	<rect x="11.6" y="13.6" transform="matrix(0.7071 -0.7071 0.7071 0.7071 -5.4832 15.816)" class="st0" width="9.5" height="1.8"/>
	<path class="st0" d="M26.6,17.2v0.1c0,0.5-0.4,0.8-0.8,0.8H14.3v-1.8h11.5C26.3,16.4,26.6,16.7,26.6,17.2"/>
	<path class="st1" d="M34,17.3C34,26.5,26.5,34,17.3,34C8,34,0.5,26.5,0.5,17.3C0.5,8,8,0.5,17.3,0.5C26.5,0.5,34,8,34,17.3z"/>
</g>
</svg>
