<?xml version="1.0" encoding="utf-8"?>
<!-- Generator: Adobe Illustrator 23.0.1, SVG Export Plug-In . SVG Version: 6.00 Build 0)  -->
<svg version="1.1" id="Layer_1" xmlns="http://www.w3.org/2000/svg" xmlns:xlink="http://www.w3.org/1999/xlink" x="0px" y="0px"
	 viewBox="0 0 34.5 34.5" style="enable-background:new 0 0 34.5 34.5;" xml:space="preserve">
<style type="text/css">
	.st0{fill:none;stroke:#FFFFFF;stroke-width:0.933;stroke-miterlimit:10;}
	.st1{fill:#FFFFFF;}
</style>
<path class="st0" d="M34,17.3C34,26.5,26.5,34,17.3,34C8,34,0.5,26.5,0.5,17.3C0.5,8,8,0.5,17.3,0.5C26.5,0.5,34,8,34,17.3z"/>
<path class="st1" d="M14.9,22.6C14.9,22.6,14.9,22.6,14.9,22.6C14.9,22.6,14.9,22.6,14.9,22.6c0.5,0.2,1,0.3,1.4,0.3
	c1.8,0.3,1.2,1.9-0.2,3.2c-0.3,0.3,0,0.7,0.4,0.6c2.2-0.7,6-3.5,7.8-8.2c0.1-0.3,0.3-0.7,0.4-1c0-0.1,0.1-0.1,0.1-0.2c0,0,0,0,0,0
	c0.1-0.6,0.2-1.2,0.2-1.8c0-4.2-3.4-7.6-7.6-7.6c-4.2,0-7.6,3.4-7.6,7.6C9.7,18.7,11.9,21.6,14.9,22.6"/>
</svg>
