<?xml version="1.0" encoding="utf-8"?>
<!-- Generator: Adobe Illustrator 23.0.1, SVG Export Plug-In . SVG Version: 6.00 Build 0)  -->
<svg version="1.1" id="Layer_1" xmlns="http://www.w3.org/2000/svg" xmlns:xlink="http://www.w3.org/1999/xlink" x="0px" y="0px"
	 viewBox="0 0 34.5 34.5" style="enable-background:new 0 0 34.5 34.5;" xml:space="preserve">
<style type="text/css">
	.st0{fill:none;stroke:#FFFFFF;stroke-width:0.933;stroke-miterlimit:10;}
	.st1{fill:#FFFFFF;}
</style>
<path class="st0" d="M34,17.3C34,26.5,26.5,34,17.3,34C8,34,0.5,26.5,0.5,17.3C0.5,8,8,0.5,17.3,0.5C26.5,0.5,34,8,34,17.3z"/>
<path class="st1" d="M27.5,18.2c0-0.3,0-0.6,0-0.9c0-0.3,0-0.6,0-0.9c-2.1-0.8-2.4-1.8-0.9-3.5c-0.3-0.5-0.6-1-0.9-1.5
	c-2.2,0.4-2.9-0.3-2.5-2.5c-0.5-0.3-1-0.6-1.5-0.9C19.9,9.4,19,9.1,18.2,7c-0.3,0-0.6,0-0.9,0c-0.3,0-0.6,0-0.9,0
	c-0.8,2.1-1.8,2.4-3.5,0.9c-0.5,0.3-1,0.6-1.5,0.9c0.4,2.2-0.3,2.9-2.5,2.5c-0.3,0.5-0.6,1-0.9,1.5c1.4,1.7,1.2,2.7-0.9,3.5
	c0,0.3,0,0.6,0,0.9c0,0.3,0,0.6,0,0.9C9.1,19,9.4,19.9,8,21.6c0.3,0.5,0.6,1,0.9,1.5c2.2-0.4,2.9,0.3,2.5,2.5c0.5,0.3,1,0.6,1.5,0.9
	c1.7-1.4,2.7-1.2,3.5,0.9c0.3,0,0.6,0,0.9,0c0.3,0,0.6,0,0.9,0c0.8-2.1,1.8-2.4,3.5-0.9c0.5-0.3,1-0.6,1.5-0.9
	c-0.4-2.2,0.3-2.9,2.5-2.5c0.3-0.5,0.6-1,0.9-1.5C25.1,19.9,25.4,19,27.5,18.2 M17.3,21.5c-2.3,0-4.2-1.9-4.2-4.2
	c0-2.3,1.9-4.2,4.2-4.2c2.3,0,4.2,1.9,4.2,4.2C21.5,19.6,19.6,21.5,17.3,21.5"/>
</svg>
